<mxfile host="Electron" modified="2023-06-04T14:41:13.449Z" agent="Mozilla/5.0 (Windows NT 10.0; Win64; x64) AppleWebKit/537.36 (KHTML, like Gecko) draw.io/21.2.8 Chrome/112.0.5615.165 Electron/24.2.0 Safari/537.36" etag="vhOMrESwsGU9_dmXLEiu" version="21.2.8" type="device">
  <diagram name="Sayfa -1" id="2Q7rJpBjIlXAXQQlR4CL">
    <mxGraphModel dx="3185" dy="968" grid="0" gridSize="10" guides="1" tooltips="1" connect="1" arrows="1" fold="1" page="1" pageScale="1" pageWidth="1200" pageHeight="1920" background="#FFCE9F" math="0" shadow="0">
      <root>
        <mxCell id="0" />
        <mxCell id="1" parent="0" />
        <mxCell id="gPZkoOqSUaPCiqlDeYD5-5" value="Simulator" style="swimlane;fontStyle=1;align=center;verticalAlign=top;childLayout=stackLayout;horizontal=1;startSize=26;horizontalStack=0;resizeParent=1;resizeParentMax=0;resizeLast=0;collapsible=1;marginBottom=0;whiteSpace=wrap;html=1;fillColor=#647687;fontColor=#ffffff;strokeColor=#314354;" parent="1" vertex="1">
          <mxGeometry x="726" y="149" width="185" height="176" as="geometry" />
        </mxCell>
        <mxCell id="gPZkoOqSUaPCiqlDeYD5-6" value="- time :&amp;nbsp; DateTime&lt;br&gt;- elevators : List&amp;lt;Elevator&amp;gt;&lt;br&gt;- floors : List&amp;lt;floor&amp;gt;" style="text;strokeColor=#B09500;fillColor=#e3c800;align=left;verticalAlign=top;spacingLeft=4;spacingRight=4;overflow=hidden;rotatable=0;points=[[0,0.5],[1,0.5]];portConstraint=eastwest;whiteSpace=wrap;html=1;fontColor=#000000;" parent="gPZkoOqSUaPCiqlDeYD5-5" vertex="1">
          <mxGeometry y="26" width="185" height="67" as="geometry" />
        </mxCell>
        <mxCell id="gPZkoOqSUaPCiqlDeYD5-7" value="" style="line;strokeWidth=1;fillColor=none;align=left;verticalAlign=middle;spacingTop=-1;spacingLeft=3;spacingRight=3;rotatable=0;labelPosition=right;points=[];portConstraint=eastwest;strokeColor=inherit;" parent="gPZkoOqSUaPCiqlDeYD5-5" vertex="1">
          <mxGeometry y="93" width="185" height="8" as="geometry" />
        </mxCell>
        <mxCell id="gPZkoOqSUaPCiqlDeYD5-8" value="+ start()&lt;br&gt;+ stop()&lt;br&gt;+ createPassenger()&lt;br&gt;+ move()" style="text;strokeColor=#BD7000;fillColor=#f0a30a;align=left;verticalAlign=top;spacingLeft=4;spacingRight=4;overflow=hidden;rotatable=0;points=[[0,0.5],[1,0.5]];portConstraint=eastwest;whiteSpace=wrap;html=1;fontColor=#000000;" parent="gPZkoOqSUaPCiqlDeYD5-5" vertex="1">
          <mxGeometry y="101" width="185" height="75" as="geometry" />
        </mxCell>
        <mxCell id="gPZkoOqSUaPCiqlDeYD5-13" value="Elevator" style="swimlane;fontStyle=1;align=center;verticalAlign=top;childLayout=stackLayout;horizontal=1;startSize=26;horizontalStack=0;resizeParent=1;resizeParentMax=0;resizeLast=0;collapsible=1;marginBottom=0;whiteSpace=wrap;html=1;fillColor=#647687;fontColor=#ffffff;strokeColor=#314354;" parent="1" vertex="1">
          <mxGeometry x="26" y="149" width="199" height="237" as="geometry" />
        </mxCell>
        <mxCell id="gPZkoOqSUaPCiqlDeYD5-14" value="- capacity: int&lt;br&gt;- enegrySave : bool&lt;br&gt;- targetButtons : List&amp;lt;int&amp;gt;&lt;br&gt;- door : Door&lt;br&gt;- controlPanel = ControlPanel&lt;br&gt;- indicatorLight : IndicatorLight" style="text;strokeColor=#B09500;fillColor=#e3c800;align=left;verticalAlign=top;spacingLeft=4;spacingRight=4;overflow=hidden;rotatable=0;points=[[0,0.5],[1,0.5]];portConstraint=eastwest;whiteSpace=wrap;html=1;fontColor=#000000;" parent="gPZkoOqSUaPCiqlDeYD5-13" vertex="1">
          <mxGeometry y="26" width="199" height="118" as="geometry" />
        </mxCell>
        <mxCell id="gPZkoOqSUaPCiqlDeYD5-15" value="" style="line;strokeWidth=1;fillColor=none;align=left;verticalAlign=middle;spacingTop=-1;spacingLeft=3;spacingRight=3;rotatable=0;labelPosition=right;points=[];portConstraint=eastwest;strokeColor=inherit;" parent="gPZkoOqSUaPCiqlDeYD5-13" vertex="1">
          <mxGeometry y="144" width="199" height="8" as="geometry" />
        </mxCell>
        <mxCell id="gPZkoOqSUaPCiqlDeYD5-16" value="+ pressTargetButton(target : int)&lt;br&gt;+ openDoor()&lt;br&gt;+ closeDoor()&lt;br&gt;+ emergency()" style="text;strokeColor=#BD7000;fillColor=#f0a30a;align=left;verticalAlign=top;spacingLeft=4;spacingRight=4;overflow=hidden;rotatable=0;points=[[0,0.5],[1,0.5]];portConstraint=eastwest;whiteSpace=wrap;html=1;fontColor=#000000;" parent="gPZkoOqSUaPCiqlDeYD5-13" vertex="1">
          <mxGeometry y="152" width="199" height="85" as="geometry" />
        </mxCell>
        <mxCell id="gPZkoOqSUaPCiqlDeYD5-17" value="Door" style="swimlane;fontStyle=1;align=center;verticalAlign=top;childLayout=stackLayout;horizontal=1;startSize=26;horizontalStack=0;resizeParent=1;resizeParentMax=0;resizeLast=0;collapsible=1;marginBottom=0;whiteSpace=wrap;html=1;fillColor=#647687;fontColor=#ffffff;strokeColor=#314354;" parent="1" vertex="1">
          <mxGeometry x="-363" y="636" width="185" height="174" as="geometry" />
        </mxCell>
        <mxCell id="gPZkoOqSUaPCiqlDeYD5-18" value="- elevator : Elevator&lt;br&gt;- floor Floor&lt;br&gt;- arrivalBell : ArrivalBell&lt;br&gt;- signalLight : signalLight&lt;br&gt;" style="text;strokeColor=#B09500;fillColor=#e3c800;align=left;verticalAlign=top;spacingLeft=4;spacingRight=4;overflow=hidden;rotatable=0;points=[[0,0.5],[1,0.5]];portConstraint=eastwest;whiteSpace=wrap;html=1;fontColor=#000000;" parent="gPZkoOqSUaPCiqlDeYD5-17" vertex="1">
          <mxGeometry y="26" width="185" height="87" as="geometry" />
        </mxCell>
        <mxCell id="gPZkoOqSUaPCiqlDeYD5-19" value="" style="line;strokeWidth=1;fillColor=none;align=left;verticalAlign=middle;spacingTop=-1;spacingLeft=3;spacingRight=3;rotatable=0;labelPosition=right;points=[];portConstraint=eastwest;strokeColor=inherit;" parent="gPZkoOqSUaPCiqlDeYD5-17" vertex="1">
          <mxGeometry y="113" width="185" height="8" as="geometry" />
        </mxCell>
        <mxCell id="gPZkoOqSUaPCiqlDeYD5-20" value="+ open()&lt;br&gt;+ close()" style="text;strokeColor=#BD7000;fillColor=#f0a30a;align=left;verticalAlign=top;spacingLeft=4;spacingRight=4;overflow=hidden;rotatable=0;points=[[0,0.5],[1,0.5]];portConstraint=eastwest;whiteSpace=wrap;html=1;fontColor=#000000;" parent="gPZkoOqSUaPCiqlDeYD5-17" vertex="1">
          <mxGeometry y="121" width="185" height="53" as="geometry" />
        </mxCell>
        <mxCell id="gPZkoOqSUaPCiqlDeYD5-21" value="ControlPanel" style="swimlane;fontStyle=1;align=center;verticalAlign=top;childLayout=stackLayout;horizontal=1;startSize=26;horizontalStack=0;resizeParent=1;resizeParentMax=0;resizeLast=0;collapsible=1;marginBottom=0;whiteSpace=wrap;html=1;fillColor=#647687;fontColor=#ffffff;strokeColor=#314354;" parent="1" vertex="1">
          <mxGeometry x="262" y="636" width="200" height="194" as="geometry" />
        </mxCell>
        <mxCell id="gPZkoOqSUaPCiqlDeYD5-22" value="- targetButtons : List&amp;lt;Button&amp;gt;&lt;br&gt;- doorReleaseButton : Button&lt;br&gt;- doorCloseButton : Button&lt;br&gt;- emergencyButton : Button" style="text;strokeColor=#B09500;fillColor=#e3c800;align=left;verticalAlign=top;spacingLeft=4;spacingRight=4;overflow=hidden;rotatable=0;points=[[0,0.5],[1,0.5]];portConstraint=eastwest;whiteSpace=wrap;html=1;fontColor=#000000;" parent="gPZkoOqSUaPCiqlDeYD5-21" vertex="1">
          <mxGeometry y="26" width="200" height="84" as="geometry" />
        </mxCell>
        <mxCell id="gPZkoOqSUaPCiqlDeYD5-23" value="" style="line;strokeWidth=1;fillColor=none;align=left;verticalAlign=middle;spacingTop=-1;spacingLeft=3;spacingRight=3;rotatable=0;labelPosition=right;points=[];portConstraint=eastwest;strokeColor=inherit;" parent="gPZkoOqSUaPCiqlDeYD5-21" vertex="1">
          <mxGeometry y="110" width="200" height="8" as="geometry" />
        </mxCell>
        <mxCell id="gPZkoOqSUaPCiqlDeYD5-24" value="+ pressTargetButton(target : int)&lt;br&gt;+ pressReleaseButton()&lt;br&gt;+ pressCloseButton()&lt;br&gt;+ pressEmergencyButton()" style="text;strokeColor=#BD7000;fillColor=#f0a30a;align=left;verticalAlign=top;spacingLeft=4;spacingRight=4;overflow=hidden;rotatable=0;points=[[0,0.5],[1,0.5]];portConstraint=eastwest;whiteSpace=wrap;html=1;fontColor=#000000;" parent="gPZkoOqSUaPCiqlDeYD5-21" vertex="1">
          <mxGeometry y="118" width="200" height="76" as="geometry" />
        </mxCell>
        <mxCell id="gPZkoOqSUaPCiqlDeYD5-25" value="ArrivalBell" style="swimlane;fontStyle=1;align=center;verticalAlign=top;childLayout=stackLayout;horizontal=1;startSize=26;horizontalStack=0;resizeParent=1;resizeParentMax=0;resizeLast=0;collapsible=1;marginBottom=0;whiteSpace=wrap;html=1;fillColor=#647687;fontColor=#ffffff;strokeColor=#314354;" parent="1" vertex="1">
          <mxGeometry x="-690" y="535" width="185" height="110" as="geometry" />
        </mxCell>
        <mxCell id="gPZkoOqSUaPCiqlDeYD5-26" value="- door : Door" style="text;strokeColor=#B09500;fillColor=#e3c800;align=left;verticalAlign=top;spacingLeft=4;spacingRight=4;overflow=hidden;rotatable=0;points=[[0,0.5],[1,0.5]];portConstraint=eastwest;whiteSpace=wrap;html=1;fontColor=#000000;" parent="gPZkoOqSUaPCiqlDeYD5-25" vertex="1">
          <mxGeometry y="26" width="185" height="33" as="geometry" />
        </mxCell>
        <mxCell id="gPZkoOqSUaPCiqlDeYD5-27" value="" style="line;strokeWidth=1;fillColor=none;align=left;verticalAlign=middle;spacingTop=-1;spacingLeft=3;spacingRight=3;rotatable=0;labelPosition=right;points=[];portConstraint=eastwest;strokeColor=inherit;" parent="gPZkoOqSUaPCiqlDeYD5-25" vertex="1">
          <mxGeometry y="59" width="185" height="8" as="geometry" />
        </mxCell>
        <mxCell id="gPZkoOqSUaPCiqlDeYD5-28" value="+ ringBell()" style="text;strokeColor=#BD7000;fillColor=#f0a30a;align=left;verticalAlign=top;spacingLeft=4;spacingRight=4;overflow=hidden;rotatable=0;points=[[0,0.5],[1,0.5]];portConstraint=eastwest;whiteSpace=wrap;html=1;fontColor=#000000;" parent="gPZkoOqSUaPCiqlDeYD5-25" vertex="1">
          <mxGeometry y="67" width="185" height="43" as="geometry" />
        </mxCell>
        <mxCell id="gPZkoOqSUaPCiqlDeYD5-29" value="SignalLight" style="swimlane;fontStyle=1;align=center;verticalAlign=top;childLayout=stackLayout;horizontal=1;startSize=26;horizontalStack=0;resizeParent=1;resizeParentMax=0;resizeLast=0;collapsible=1;marginBottom=0;whiteSpace=wrap;html=1;fillColor=#647687;fontColor=#ffffff;strokeColor=#314354;" parent="1" vertex="1">
          <mxGeometry x="-690" y="821" width="185" height="110" as="geometry" />
        </mxCell>
        <mxCell id="gPZkoOqSUaPCiqlDeYD5-30" value="- door : Door" style="text;strokeColor=#B09500;fillColor=#e3c800;align=left;verticalAlign=top;spacingLeft=4;spacingRight=4;overflow=hidden;rotatable=0;points=[[0,0.5],[1,0.5]];portConstraint=eastwest;whiteSpace=wrap;html=1;fontColor=#000000;" parent="gPZkoOqSUaPCiqlDeYD5-29" vertex="1">
          <mxGeometry y="26" width="185" height="33" as="geometry" />
        </mxCell>
        <mxCell id="gPZkoOqSUaPCiqlDeYD5-31" value="" style="line;strokeWidth=1;fillColor=none;align=left;verticalAlign=middle;spacingTop=-1;spacingLeft=3;spacingRight=3;rotatable=0;labelPosition=right;points=[];portConstraint=eastwest;strokeColor=inherit;" parent="gPZkoOqSUaPCiqlDeYD5-29" vertex="1">
          <mxGeometry y="59" width="185" height="8" as="geometry" />
        </mxCell>
        <mxCell id="gPZkoOqSUaPCiqlDeYD5-32" value="+ turnOnLight()" style="text;strokeColor=#BD7000;fillColor=#f0a30a;align=left;verticalAlign=top;spacingLeft=4;spacingRight=4;overflow=hidden;rotatable=0;points=[[0,0.5],[1,0.5]];portConstraint=eastwest;whiteSpace=wrap;html=1;fontColor=#000000;" parent="gPZkoOqSUaPCiqlDeYD5-29" vertex="1">
          <mxGeometry y="67" width="185" height="43" as="geometry" />
        </mxCell>
        <mxCell id="gPZkoOqSUaPCiqlDeYD5-33" value="Button" style="swimlane;fontStyle=1;align=center;verticalAlign=top;childLayout=stackLayout;horizontal=1;startSize=26;horizontalStack=0;resizeParent=1;resizeParentMax=0;resizeLast=0;collapsible=1;marginBottom=0;whiteSpace=wrap;html=1;fillColor=#647687;fontColor=#ffffff;strokeColor=#314354;" parent="1" vertex="1">
          <mxGeometry x="-51" y="675" width="185" height="155" as="geometry" />
        </mxCell>
        <mxCell id="gPZkoOqSUaPCiqlDeYD5-34" value="&amp;nbsp;- target : int&amp;nbsp;&lt;br&gt;- controlPanel : ControlPanel&lt;br&gt;- floor :Floor" style="text;strokeColor=#B09500;fillColor=#e3c800;align=left;verticalAlign=top;spacingLeft=4;spacingRight=4;overflow=hidden;rotatable=0;points=[[0,0.5],[1,0.5]];portConstraint=eastwest;whiteSpace=wrap;html=1;fontColor=#000000;" parent="gPZkoOqSUaPCiqlDeYD5-33" vertex="1">
          <mxGeometry y="26" width="185" height="78" as="geometry" />
        </mxCell>
        <mxCell id="gPZkoOqSUaPCiqlDeYD5-35" value="" style="line;strokeWidth=1;fillColor=none;align=left;verticalAlign=middle;spacingTop=-1;spacingLeft=3;spacingRight=3;rotatable=0;labelPosition=right;points=[];portConstraint=eastwest;strokeColor=inherit;" parent="gPZkoOqSUaPCiqlDeYD5-33" vertex="1">
          <mxGeometry y="104" width="185" height="8" as="geometry" />
        </mxCell>
        <mxCell id="gPZkoOqSUaPCiqlDeYD5-36" value="+ press()" style="text;strokeColor=#BD7000;fillColor=#f0a30a;align=left;verticalAlign=top;spacingLeft=4;spacingRight=4;overflow=hidden;rotatable=0;points=[[0,0.5],[1,0.5]];portConstraint=eastwest;whiteSpace=wrap;html=1;fontColor=#000000;" parent="gPZkoOqSUaPCiqlDeYD5-33" vertex="1">
          <mxGeometry y="112" width="185" height="43" as="geometry" />
        </mxCell>
        <mxCell id="gPZkoOqSUaPCiqlDeYD5-37" value="Floor" style="swimlane;fontStyle=1;align=center;verticalAlign=top;childLayout=stackLayout;horizontal=1;startSize=26;horizontalStack=0;resizeParent=1;resizeParentMax=0;resizeLast=0;collapsible=1;marginBottom=0;whiteSpace=wrap;html=1;fillColor=#647687;fontColor=#ffffff;strokeColor=#314354;" parent="1" vertex="1">
          <mxGeometry x="681" y="805" width="185" height="155" as="geometry" />
        </mxCell>
        <mxCell id="gPZkoOqSUaPCiqlDeYD5-38" value="&amp;nbsp;- target : int&amp;nbsp;&lt;br&gt;- controlPanel : ControlPanel&lt;br&gt;- floor :Floor" style="text;strokeColor=#B09500;fillColor=#e3c800;align=left;verticalAlign=top;spacingLeft=4;spacingRight=4;overflow=hidden;rotatable=0;points=[[0,0.5],[1,0.5]];portConstraint=eastwest;whiteSpace=wrap;html=1;fontColor=#000000;" parent="gPZkoOqSUaPCiqlDeYD5-37" vertex="1">
          <mxGeometry y="26" width="185" height="78" as="geometry" />
        </mxCell>
        <mxCell id="gPZkoOqSUaPCiqlDeYD5-39" value="" style="line;strokeWidth=1;fillColor=none;align=left;verticalAlign=middle;spacingTop=-1;spacingLeft=3;spacingRight=3;rotatable=0;labelPosition=right;points=[];portConstraint=eastwest;strokeColor=inherit;" parent="gPZkoOqSUaPCiqlDeYD5-37" vertex="1">
          <mxGeometry y="104" width="185" height="8" as="geometry" />
        </mxCell>
        <mxCell id="gPZkoOqSUaPCiqlDeYD5-40" value="+ press()" style="text;strokeColor=#BD7000;fillColor=#f0a30a;align=left;verticalAlign=top;spacingLeft=4;spacingRight=4;overflow=hidden;rotatable=0;points=[[0,0.5],[1,0.5]];portConstraint=eastwest;whiteSpace=wrap;html=1;fontColor=#000000;" parent="gPZkoOqSUaPCiqlDeYD5-37" vertex="1">
          <mxGeometry y="112" width="185" height="43" as="geometry" />
        </mxCell>
        <mxCell id="FohxZ__JXv7pmBZkePxA-1" value="IndicatorLight" style="swimlane;fontStyle=1;align=center;verticalAlign=top;childLayout=stackLayout;horizontal=1;startSize=26;horizontalStack=0;resizeParent=1;resizeParentMax=0;resizeLast=0;collapsible=1;marginBottom=0;whiteSpace=wrap;html=1;fillColor=#647687;fontColor=#ffffff;strokeColor=#314354;" vertex="1" parent="1">
          <mxGeometry x="-453" y="175" width="185" height="110" as="geometry" />
        </mxCell>
        <mxCell id="FohxZ__JXv7pmBZkePxA-2" value="- elevator : Elevator" style="text;strokeColor=#B09500;fillColor=#e3c800;align=left;verticalAlign=top;spacingLeft=4;spacingRight=4;overflow=hidden;rotatable=0;points=[[0,0.5],[1,0.5]];portConstraint=eastwest;whiteSpace=wrap;html=1;fontColor=#000000;" vertex="1" parent="FohxZ__JXv7pmBZkePxA-1">
          <mxGeometry y="26" width="185" height="33" as="geometry" />
        </mxCell>
        <mxCell id="FohxZ__JXv7pmBZkePxA-3" value="" style="line;strokeWidth=1;fillColor=none;align=left;verticalAlign=middle;spacingTop=-1;spacingLeft=3;spacingRight=3;rotatable=0;labelPosition=right;points=[];portConstraint=eastwest;strokeColor=inherit;" vertex="1" parent="FohxZ__JXv7pmBZkePxA-1">
          <mxGeometry y="59" width="185" height="8" as="geometry" />
        </mxCell>
        <mxCell id="FohxZ__JXv7pmBZkePxA-4" value="+ turnOnLight()" style="text;strokeColor=#BD7000;fillColor=#f0a30a;align=left;verticalAlign=top;spacingLeft=4;spacingRight=4;overflow=hidden;rotatable=0;points=[[0,0.5],[1,0.5]];portConstraint=eastwest;whiteSpace=wrap;html=1;fontColor=#000000;" vertex="1" parent="FohxZ__JXv7pmBZkePxA-1">
          <mxGeometry y="67" width="185" height="43" as="geometry" />
        </mxCell>
        <mxCell id="FohxZ__JXv7pmBZkePxA-19" value="1" style="endArrow=open;html=1;endSize=12;startArrow=diamondThin;startSize=14;startFill=1;edgeStyle=orthogonalEdgeStyle;align=left;verticalAlign=bottom;rounded=0;entryX=1.001;entryY=0.336;entryDx=0;entryDy=0;entryPerimeter=0;" edge="1" parent="1" source="gPZkoOqSUaPCiqlDeYD5-14" target="FohxZ__JXv7pmBZkePxA-2">
          <mxGeometry x="-1" y="3" relative="1" as="geometry">
            <mxPoint x="-48" y="341" as="sourcePoint" />
            <mxPoint x="112" y="341" as="targetPoint" />
          </mxGeometry>
        </mxCell>
        <mxCell id="FohxZ__JXv7pmBZkePxA-20" value="1" style="endArrow=open;html=1;endSize=12;startArrow=diamondThin;startSize=14;startFill=1;edgeStyle=orthogonalEdgeStyle;align=left;verticalAlign=bottom;rounded=0;exitX=0;exitY=0.5;exitDx=0;exitDy=0;entryX=0.5;entryY=0;entryDx=0;entryDy=0;" edge="1" parent="1" source="gPZkoOqSUaPCiqlDeYD5-13" target="gPZkoOqSUaPCiqlDeYD5-17">
          <mxGeometry x="-1" y="3" relative="1" as="geometry">
            <mxPoint x="51" y="516" as="sourcePoint" />
            <mxPoint x="211" y="516" as="targetPoint" />
            <Array as="points">
              <mxPoint x="-204" y="267" />
              <mxPoint x="-204" y="575" />
              <mxPoint x="-270" y="575" />
            </Array>
          </mxGeometry>
        </mxCell>
        <mxCell id="FohxZ__JXv7pmBZkePxA-21" value="1" style="endArrow=open;html=1;endSize=12;startArrow=diamondThin;startSize=14;startFill=1;edgeStyle=orthogonalEdgeStyle;align=left;verticalAlign=bottom;rounded=0;exitX=0.5;exitY=1;exitDx=0;exitDy=0;" edge="1" parent="1" source="gPZkoOqSUaPCiqlDeYD5-13" target="gPZkoOqSUaPCiqlDeYD5-33">
          <mxGeometry x="-1" y="3" relative="1" as="geometry">
            <mxPoint x="51" y="516" as="sourcePoint" />
            <mxPoint x="211" y="516" as="targetPoint" />
          </mxGeometry>
        </mxCell>
        <mxCell id="FohxZ__JXv7pmBZkePxA-22" value="1" style="endArrow=open;html=1;endSize=12;startArrow=diamondThin;startSize=14;startFill=1;edgeStyle=orthogonalEdgeStyle;align=left;verticalAlign=bottom;rounded=0;entryX=0.5;entryY=0;entryDx=0;entryDy=0;" edge="1" parent="1" source="gPZkoOqSUaPCiqlDeYD5-14" target="gPZkoOqSUaPCiqlDeYD5-21">
          <mxGeometry x="-1" y="3" relative="1" as="geometry">
            <mxPoint x="51" y="516" as="sourcePoint" />
            <mxPoint x="211" y="516" as="targetPoint" />
          </mxGeometry>
        </mxCell>
        <mxCell id="FohxZ__JXv7pmBZkePxA-23" value="1" style="endArrow=open;html=1;endSize=12;startArrow=diamondThin;startSize=14;startFill=1;edgeStyle=orthogonalEdgeStyle;align=left;verticalAlign=bottom;rounded=0;exitX=0;exitY=0.5;exitDx=0;exitDy=0;entryX=1;entryY=0.5;entryDx=0;entryDy=0;" edge="1" parent="1" source="gPZkoOqSUaPCiqlDeYD5-18" target="gPZkoOqSUaPCiqlDeYD5-30">
          <mxGeometry x="-1" y="3" relative="1" as="geometry">
            <mxPoint x="-401" y="516" as="sourcePoint" />
            <mxPoint x="-241" y="516" as="targetPoint" />
          </mxGeometry>
        </mxCell>
        <mxCell id="FohxZ__JXv7pmBZkePxA-24" value="1" style="endArrow=open;html=1;endSize=12;startArrow=diamondThin;startSize=14;startFill=1;edgeStyle=orthogonalEdgeStyle;align=left;verticalAlign=bottom;rounded=0;exitX=-0.005;exitY=0.336;exitDx=0;exitDy=0;exitPerimeter=0;entryX=1;entryY=0.5;entryDx=0;entryDy=0;" edge="1" parent="1" source="gPZkoOqSUaPCiqlDeYD5-18" target="gPZkoOqSUaPCiqlDeYD5-26">
          <mxGeometry x="-1" y="3" relative="1" as="geometry">
            <mxPoint x="-401" y="516" as="sourcePoint" />
            <mxPoint x="-241" y="516" as="targetPoint" />
          </mxGeometry>
        </mxCell>
        <mxCell id="FohxZ__JXv7pmBZkePxA-25" value="1" style="endArrow=open;html=1;endSize=12;startArrow=diamondThin;startSize=14;startFill=1;edgeStyle=orthogonalEdgeStyle;align=left;verticalAlign=bottom;rounded=0;exitX=0;exitY=0.25;exitDx=0;exitDy=0;" edge="1" parent="1" source="gPZkoOqSUaPCiqlDeYD5-21" target="gPZkoOqSUaPCiqlDeYD5-34">
          <mxGeometry x="-1" y="3" relative="1" as="geometry">
            <mxPoint x="-38" y="641" as="sourcePoint" />
            <mxPoint x="132" y="689" as="targetPoint" />
          </mxGeometry>
        </mxCell>
        <mxCell id="FohxZ__JXv7pmBZkePxA-26" value="1" style="endArrow=open;html=1;endSize=12;startArrow=diamondThin;startSize=14;startFill=1;edgeStyle=orthogonalEdgeStyle;align=left;verticalAlign=bottom;rounded=0;exitX=1.01;exitY=0.081;exitDx=0;exitDy=0;exitPerimeter=0;entryX=0;entryY=0.5;entryDx=0;entryDy=0;" edge="1" parent="1" source="gPZkoOqSUaPCiqlDeYD5-13" target="gPZkoOqSUaPCiqlDeYD5-6">
          <mxGeometry x="-1" y="3" relative="1" as="geometry">
            <mxPoint x="92" y="521" as="sourcePoint" />
            <mxPoint x="252" y="521" as="targetPoint" />
          </mxGeometry>
        </mxCell>
        <mxCell id="FohxZ__JXv7pmBZkePxA-27" value="1" style="endArrow=open;html=1;endSize=12;startArrow=diamondThin;startSize=14;startFill=0;edgeStyle=orthogonalEdgeStyle;align=left;verticalAlign=bottom;rounded=0;exitX=0.5;exitY=1;exitDx=0;exitDy=0;" edge="1" parent="1" source="gPZkoOqSUaPCiqlDeYD5-5" target="gPZkoOqSUaPCiqlDeYD5-37">
          <mxGeometry x="-1" y="3" relative="1" as="geometry">
            <mxPoint x="92" y="521" as="sourcePoint" />
            <mxPoint x="252" y="521" as="targetPoint" />
          </mxGeometry>
        </mxCell>
        <mxCell id="FohxZ__JXv7pmBZkePxA-28" value="1" style="endArrow=open;html=1;endSize=12;startArrow=diamondThin;startSize=14;startFill=1;edgeStyle=orthogonalEdgeStyle;align=left;verticalAlign=bottom;rounded=0;" edge="1" parent="1">
          <mxGeometry x="-1" y="3" relative="1" as="geometry">
            <mxPoint x="678" y="859" as="sourcePoint" />
            <mxPoint x="58" y="835" as="targetPoint" />
          </mxGeometry>
        </mxCell>
        <mxCell id="FohxZ__JXv7pmBZkePxA-29" value="1" style="endArrow=open;html=1;endSize=12;startArrow=diamondThin;startSize=14;startFill=1;edgeStyle=orthogonalEdgeStyle;align=left;verticalAlign=bottom;rounded=0;exitX=0;exitY=0.5;exitDx=0;exitDy=0;" edge="1" parent="1" source="gPZkoOqSUaPCiqlDeYD5-40">
          <mxGeometry x="-1" y="3" relative="1" as="geometry">
            <mxPoint x="92" y="771" as="sourcePoint" />
            <mxPoint x="-281" y="813" as="targetPoint" />
          </mxGeometry>
        </mxCell>
      </root>
    </mxGraphModel>
  </diagram>
</mxfile>
